<mxfile host="app.diagrams.net" modified="2024-04-09T04:34:10.534Z" agent="Mozilla/5.0 (Windows NT 10.0; Win64; x64) AppleWebKit/537.36 (KHTML, like Gecko) Chrome/123.0.0.0 Safari/537.36 Edg/123.0.0.0" etag="hdZ6eowohhp7B8UlV6to" version="24.2.3" type="device">
  <diagram name="Page-1" id="b520641d-4fe3-3701-9064-5fc419738815">
    <mxGraphModel dx="868" dy="474" grid="1" gridSize="10" guides="1" tooltips="1" connect="1" arrows="1" fold="1" page="1" pageScale="1" pageWidth="1100" pageHeight="850" background="none" math="0" shadow="0">
      <root>
        <mxCell id="0" />
        <mxCell id="1" parent="0" />
        <mxCell id="21ea969265ad0168-6" value="Peliculas" style="swimlane;html=1;fontStyle=0;childLayout=stackLayout;horizontal=1;startSize=26;fillColor=#e0e0e0;horizontalStack=0;resizeParent=1;resizeLast=0;collapsible=1;marginBottom=0;swimlaneFillColor=#ffffff;align=center;rounded=1;shadow=0;comic=0;labelBackgroundColor=none;strokeWidth=1;fontFamily=Verdana;fontSize=12;arcSize=0;" parent="1" vertex="1">
          <mxGeometry x="80" y="121" width="240" height="82" as="geometry" />
        </mxCell>
        <mxCell id="kzQwb79V7lkBx5ds27BD-4" value="" style="shape=table;startSize=0;container=1;collapsible=0;childLayout=tableLayout;" vertex="1" parent="21ea969265ad0168-6">
          <mxGeometry y="26" width="240" height="56" as="geometry" />
        </mxCell>
        <mxCell id="kzQwb79V7lkBx5ds27BD-5" value="" style="shape=tableRow;horizontal=0;startSize=0;swimlaneHead=0;swimlaneBody=0;strokeColor=inherit;top=0;left=0;bottom=0;right=0;collapsible=0;dropTarget=0;fillColor=none;points=[[0,0.5],[1,0.5]];portConstraint=eastwest;" vertex="1" parent="kzQwb79V7lkBx5ds27BD-4">
          <mxGeometry width="240" height="19" as="geometry" />
        </mxCell>
        <mxCell id="kzQwb79V7lkBx5ds27BD-6" value="PK" style="shape=partialRectangle;html=1;whiteSpace=wrap;connectable=0;strokeColor=inherit;overflow=hidden;fillColor=none;top=0;left=0;bottom=0;right=0;pointerEvents=1;" vertex="1" parent="kzQwb79V7lkBx5ds27BD-5">
          <mxGeometry width="47" height="19" as="geometry">
            <mxRectangle width="47" height="19" as="alternateBounds" />
          </mxGeometry>
        </mxCell>
        <mxCell id="kzQwb79V7lkBx5ds27BD-7" value="id" style="shape=partialRectangle;html=1;whiteSpace=wrap;connectable=0;strokeColor=inherit;overflow=hidden;fillColor=none;top=0;left=0;bottom=0;right=0;pointerEvents=1;" vertex="1" parent="kzQwb79V7lkBx5ds27BD-5">
          <mxGeometry x="47" width="78" height="19" as="geometry">
            <mxRectangle width="78" height="19" as="alternateBounds" />
          </mxGeometry>
        </mxCell>
        <mxCell id="kzQwb79V7lkBx5ds27BD-8" value="INT" style="shape=partialRectangle;html=1;whiteSpace=wrap;connectable=0;strokeColor=inherit;overflow=hidden;fillColor=none;top=0;left=0;bottom=0;right=0;pointerEvents=1;" vertex="1" parent="kzQwb79V7lkBx5ds27BD-5">
          <mxGeometry x="125" width="115" height="19" as="geometry">
            <mxRectangle width="115" height="19" as="alternateBounds" />
          </mxGeometry>
        </mxCell>
        <mxCell id="kzQwb79V7lkBx5ds27BD-9" value="" style="shape=tableRow;horizontal=0;startSize=0;swimlaneHead=0;swimlaneBody=0;strokeColor=inherit;top=0;left=0;bottom=0;right=0;collapsible=0;dropTarget=0;fillColor=none;points=[[0,0.5],[1,0.5]];portConstraint=eastwest;" vertex="1" parent="kzQwb79V7lkBx5ds27BD-4">
          <mxGeometry y="19" width="240" height="18" as="geometry" />
        </mxCell>
        <mxCell id="kzQwb79V7lkBx5ds27BD-10" value="" style="shape=partialRectangle;html=1;whiteSpace=wrap;connectable=0;strokeColor=inherit;overflow=hidden;fillColor=none;top=0;left=0;bottom=0;right=0;pointerEvents=1;" vertex="1" parent="kzQwb79V7lkBx5ds27BD-9">
          <mxGeometry width="47" height="18" as="geometry">
            <mxRectangle width="47" height="18" as="alternateBounds" />
          </mxGeometry>
        </mxCell>
        <mxCell id="kzQwb79V7lkBx5ds27BD-11" value="nombre" style="shape=partialRectangle;html=1;whiteSpace=wrap;connectable=0;strokeColor=inherit;overflow=hidden;fillColor=none;top=0;left=0;bottom=0;right=0;pointerEvents=1;" vertex="1" parent="kzQwb79V7lkBx5ds27BD-9">
          <mxGeometry x="47" width="78" height="18" as="geometry">
            <mxRectangle width="78" height="18" as="alternateBounds" />
          </mxGeometry>
        </mxCell>
        <mxCell id="kzQwb79V7lkBx5ds27BD-12" value="VARCHAR (255)" style="shape=partialRectangle;html=1;whiteSpace=wrap;connectable=0;strokeColor=inherit;overflow=hidden;fillColor=none;top=0;left=0;bottom=0;right=0;pointerEvents=1;" vertex="1" parent="kzQwb79V7lkBx5ds27BD-9">
          <mxGeometry x="125" width="115" height="18" as="geometry">
            <mxRectangle width="115" height="18" as="alternateBounds" />
          </mxGeometry>
        </mxCell>
        <mxCell id="kzQwb79V7lkBx5ds27BD-40" value="" style="shape=tableRow;horizontal=0;startSize=0;swimlaneHead=0;swimlaneBody=0;strokeColor=inherit;top=0;left=0;bottom=0;right=0;collapsible=0;dropTarget=0;fillColor=none;points=[[0,0.5],[1,0.5]];portConstraint=eastwest;" vertex="1" parent="kzQwb79V7lkBx5ds27BD-4">
          <mxGeometry y="37" width="240" height="19" as="geometry" />
        </mxCell>
        <mxCell id="kzQwb79V7lkBx5ds27BD-41" value="" style="shape=partialRectangle;html=1;whiteSpace=wrap;connectable=0;strokeColor=inherit;overflow=hidden;fillColor=none;top=0;left=0;bottom=0;right=0;pointerEvents=1;" vertex="1" parent="kzQwb79V7lkBx5ds27BD-40">
          <mxGeometry width="47" height="19" as="geometry">
            <mxRectangle width="47" height="19" as="alternateBounds" />
          </mxGeometry>
        </mxCell>
        <mxCell id="kzQwb79V7lkBx5ds27BD-42" value="aÃ±o" style="shape=partialRectangle;html=1;whiteSpace=wrap;connectable=0;strokeColor=inherit;overflow=hidden;fillColor=none;top=0;left=0;bottom=0;right=0;pointerEvents=1;" vertex="1" parent="kzQwb79V7lkBx5ds27BD-40">
          <mxGeometry x="47" width="78" height="19" as="geometry">
            <mxRectangle width="78" height="19" as="alternateBounds" />
          </mxGeometry>
        </mxCell>
        <mxCell id="kzQwb79V7lkBx5ds27BD-43" value="INT" style="shape=partialRectangle;html=1;whiteSpace=wrap;connectable=0;strokeColor=inherit;overflow=hidden;fillColor=none;top=0;left=0;bottom=0;right=0;pointerEvents=1;" vertex="1" parent="kzQwb79V7lkBx5ds27BD-40">
          <mxGeometry x="125" width="115" height="19" as="geometry">
            <mxRectangle width="115" height="19" as="alternateBounds" />
          </mxGeometry>
        </mxCell>
        <mxCell id="21ea969265ad0168-10" value="Relacion_Pelicula_Tag" style="swimlane;html=1;fontStyle=0;childLayout=stackLayout;horizontal=1;startSize=26;fillColor=#e0e0e0;horizontalStack=0;resizeParent=1;resizeLast=0;collapsible=1;marginBottom=0;swimlaneFillColor=#ffffff;align=center;rounded=1;shadow=0;comic=0;labelBackgroundColor=none;strokeWidth=1;fontFamily=Verdana;fontSize=12;arcSize=0;" parent="1" vertex="1">
          <mxGeometry x="320" y="270" width="230" height="82" as="geometry" />
        </mxCell>
        <mxCell id="kzQwb79V7lkBx5ds27BD-72" value="" style="shape=table;startSize=0;container=1;collapsible=0;childLayout=tableLayout;" vertex="1" parent="21ea969265ad0168-10">
          <mxGeometry y="26" width="230" height="56" as="geometry" />
        </mxCell>
        <mxCell id="kzQwb79V7lkBx5ds27BD-73" value="" style="shape=tableRow;horizontal=0;startSize=0;swimlaneHead=0;swimlaneBody=0;strokeColor=inherit;top=0;left=0;bottom=0;right=0;collapsible=0;dropTarget=0;fillColor=none;points=[[0,0.5],[1,0.5]];portConstraint=eastwest;" vertex="1" parent="kzQwb79V7lkBx5ds27BD-72">
          <mxGeometry width="230" height="19" as="geometry" />
        </mxCell>
        <mxCell id="kzQwb79V7lkBx5ds27BD-74" value="PK" style="shape=partialRectangle;html=1;whiteSpace=wrap;connectable=0;strokeColor=inherit;overflow=hidden;fillColor=none;top=0;left=0;bottom=0;right=0;pointerEvents=1;" vertex="1" parent="kzQwb79V7lkBx5ds27BD-73">
          <mxGeometry width="45" height="19" as="geometry">
            <mxRectangle width="45" height="19" as="alternateBounds" />
          </mxGeometry>
        </mxCell>
        <mxCell id="kzQwb79V7lkBx5ds27BD-75" value="id" style="shape=partialRectangle;html=1;whiteSpace=wrap;connectable=0;strokeColor=inherit;overflow=hidden;fillColor=none;top=0;left=0;bottom=0;right=0;pointerEvents=1;" vertex="1" parent="kzQwb79V7lkBx5ds27BD-73">
          <mxGeometry x="45" width="75" height="19" as="geometry">
            <mxRectangle width="75" height="19" as="alternateBounds" />
          </mxGeometry>
        </mxCell>
        <mxCell id="kzQwb79V7lkBx5ds27BD-76" value="INT" style="shape=partialRectangle;html=1;whiteSpace=wrap;connectable=0;strokeColor=inherit;overflow=hidden;fillColor=none;top=0;left=0;bottom=0;right=0;pointerEvents=1;" vertex="1" parent="kzQwb79V7lkBx5ds27BD-73">
          <mxGeometry x="120" width="110" height="19" as="geometry">
            <mxRectangle width="110" height="19" as="alternateBounds" />
          </mxGeometry>
        </mxCell>
        <mxCell id="kzQwb79V7lkBx5ds27BD-77" value="" style="shape=tableRow;horizontal=0;startSize=0;swimlaneHead=0;swimlaneBody=0;strokeColor=inherit;top=0;left=0;bottom=0;right=0;collapsible=0;dropTarget=0;fillColor=none;points=[[0,0.5],[1,0.5]];portConstraint=eastwest;" vertex="1" parent="kzQwb79V7lkBx5ds27BD-72">
          <mxGeometry y="19" width="230" height="18" as="geometry" />
        </mxCell>
        <mxCell id="kzQwb79V7lkBx5ds27BD-78" value="FK" style="shape=partialRectangle;html=1;whiteSpace=wrap;connectable=0;strokeColor=inherit;overflow=hidden;fillColor=none;top=0;left=0;bottom=0;right=0;pointerEvents=1;" vertex="1" parent="kzQwb79V7lkBx5ds27BD-77">
          <mxGeometry width="45" height="18" as="geometry">
            <mxRectangle width="45" height="18" as="alternateBounds" />
          </mxGeometry>
        </mxCell>
        <mxCell id="kzQwb79V7lkBx5ds27BD-79" value="peliculas_id" style="shape=partialRectangle;html=1;whiteSpace=wrap;connectable=0;strokeColor=inherit;overflow=hidden;fillColor=none;top=0;left=0;bottom=0;right=0;pointerEvents=1;" vertex="1" parent="kzQwb79V7lkBx5ds27BD-77">
          <mxGeometry x="45" width="75" height="18" as="geometry">
            <mxRectangle width="75" height="18" as="alternateBounds" />
          </mxGeometry>
        </mxCell>
        <mxCell id="kzQwb79V7lkBx5ds27BD-80" value="INT" style="shape=partialRectangle;html=1;whiteSpace=wrap;connectable=0;strokeColor=inherit;overflow=hidden;fillColor=none;top=0;left=0;bottom=0;right=0;pointerEvents=1;" vertex="1" parent="kzQwb79V7lkBx5ds27BD-77">
          <mxGeometry x="120" width="110" height="18" as="geometry">
            <mxRectangle width="110" height="18" as="alternateBounds" />
          </mxGeometry>
        </mxCell>
        <mxCell id="kzQwb79V7lkBx5ds27BD-81" value="" style="shape=tableRow;horizontal=0;startSize=0;swimlaneHead=0;swimlaneBody=0;strokeColor=inherit;top=0;left=0;bottom=0;right=0;collapsible=0;dropTarget=0;fillColor=none;points=[[0,0.5],[1,0.5]];portConstraint=eastwest;" vertex="1" parent="kzQwb79V7lkBx5ds27BD-72">
          <mxGeometry y="37" width="230" height="19" as="geometry" />
        </mxCell>
        <mxCell id="kzQwb79V7lkBx5ds27BD-82" value="FK" style="shape=partialRectangle;html=1;whiteSpace=wrap;connectable=0;strokeColor=inherit;overflow=hidden;fillColor=none;top=0;left=0;bottom=0;right=0;pointerEvents=1;" vertex="1" parent="kzQwb79V7lkBx5ds27BD-81">
          <mxGeometry width="45" height="19" as="geometry">
            <mxRectangle width="45" height="19" as="alternateBounds" />
          </mxGeometry>
        </mxCell>
        <mxCell id="kzQwb79V7lkBx5ds27BD-83" value="tag_id" style="shape=partialRectangle;html=1;whiteSpace=wrap;connectable=0;strokeColor=inherit;overflow=hidden;fillColor=none;top=0;left=0;bottom=0;right=0;pointerEvents=1;" vertex="1" parent="kzQwb79V7lkBx5ds27BD-81">
          <mxGeometry x="45" width="75" height="19" as="geometry">
            <mxRectangle width="75" height="19" as="alternateBounds" />
          </mxGeometry>
        </mxCell>
        <mxCell id="kzQwb79V7lkBx5ds27BD-84" value="INT" style="shape=partialRectangle;html=1;whiteSpace=wrap;connectable=0;strokeColor=inherit;overflow=hidden;fillColor=none;top=0;left=0;bottom=0;right=0;pointerEvents=1;" vertex="1" parent="kzQwb79V7lkBx5ds27BD-81">
          <mxGeometry x="120" width="110" height="19" as="geometry">
            <mxRectangle width="110" height="19" as="alternateBounds" />
          </mxGeometry>
        </mxCell>
        <mxCell id="21ea969265ad0168-22" value="Tags" style="swimlane;html=1;fontStyle=0;childLayout=stackLayout;horizontal=1;startSize=26;fillColor=#e0e0e0;horizontalStack=0;resizeParent=1;resizeLast=0;collapsible=1;marginBottom=0;swimlaneFillColor=#ffffff;align=center;rounded=1;shadow=0;comic=0;labelBackgroundColor=none;strokeWidth=1;fontFamily=Verdana;fontSize=12;arcSize=0;" parent="1" vertex="1">
          <mxGeometry x="510" y="129" width="230" height="64" as="geometry" />
        </mxCell>
        <mxCell id="kzQwb79V7lkBx5ds27BD-57" value="" style="shape=table;startSize=0;container=1;collapsible=0;childLayout=tableLayout;fontSize=16;strokeColor=inherit;align=center;verticalAlign=middle;fontFamily=Helvetica;fontColor=default;fillColor=none;" vertex="1" parent="21ea969265ad0168-22">
          <mxGeometry y="26" width="230" height="38" as="geometry" />
        </mxCell>
        <mxCell id="kzQwb79V7lkBx5ds27BD-62" value="" style="shape=tableRow;horizontal=0;startSize=0;swimlaneHead=0;swimlaneBody=0;strokeColor=inherit;top=0;left=0;bottom=0;right=0;collapsible=0;dropTarget=0;fillColor=none;points=[[0,0.5],[1,0.5]];portConstraint=eastwest;fontSize=16;align=center;verticalAlign=middle;fontFamily=Helvetica;fontColor=default;" vertex="1" parent="kzQwb79V7lkBx5ds27BD-57">
          <mxGeometry width="230" height="19" as="geometry" />
        </mxCell>
        <mxCell id="kzQwb79V7lkBx5ds27BD-63" value="PK" style="shape=partialRectangle;html=1;whiteSpace=wrap;connectable=0;strokeColor=inherit;overflow=hidden;fillColor=none;top=0;left=0;bottom=0;right=0;pointerEvents=1;fontSize=12;align=center;verticalAlign=middle;fontFamily=Helvetica;fontColor=default;" vertex="1" parent="kzQwb79V7lkBx5ds27BD-62">
          <mxGeometry width="44" height="19" as="geometry">
            <mxRectangle width="44" height="19" as="alternateBounds" />
          </mxGeometry>
        </mxCell>
        <mxCell id="kzQwb79V7lkBx5ds27BD-64" value="id" style="shape=partialRectangle;html=1;whiteSpace=wrap;connectable=0;strokeColor=inherit;overflow=hidden;fillColor=none;top=0;left=0;bottom=0;right=0;pointerEvents=1;fontSize=12;align=center;verticalAlign=middle;fontFamily=Helvetica;fontColor=default;" vertex="1" parent="kzQwb79V7lkBx5ds27BD-62">
          <mxGeometry x="44" width="67" height="19" as="geometry">
            <mxRectangle width="67" height="19" as="alternateBounds" />
          </mxGeometry>
        </mxCell>
        <mxCell id="kzQwb79V7lkBx5ds27BD-65" value="INT" style="shape=partialRectangle;html=1;whiteSpace=wrap;connectable=0;strokeColor=inherit;overflow=hidden;fillColor=none;top=0;left=0;bottom=0;right=0;pointerEvents=1;fontSize=12;align=center;verticalAlign=middle;fontFamily=Helvetica;fontColor=default;" vertex="1" parent="kzQwb79V7lkBx5ds27BD-62">
          <mxGeometry x="111" width="119" height="19" as="geometry">
            <mxRectangle width="119" height="19" as="alternateBounds" />
          </mxGeometry>
        </mxCell>
        <mxCell id="kzQwb79V7lkBx5ds27BD-66" value="" style="shape=tableRow;horizontal=0;startSize=0;swimlaneHead=0;swimlaneBody=0;strokeColor=inherit;top=0;left=0;bottom=0;right=0;collapsible=0;dropTarget=0;fillColor=none;points=[[0,0.5],[1,0.5]];portConstraint=eastwest;fontSize=16;align=center;verticalAlign=middle;fontFamily=Helvetica;fontColor=default;" vertex="1" parent="kzQwb79V7lkBx5ds27BD-57">
          <mxGeometry y="19" width="230" height="19" as="geometry" />
        </mxCell>
        <mxCell id="kzQwb79V7lkBx5ds27BD-67" value="" style="shape=partialRectangle;html=1;whiteSpace=wrap;connectable=0;strokeColor=inherit;overflow=hidden;fillColor=none;top=0;left=0;bottom=0;right=0;pointerEvents=1;fontSize=16;align=center;verticalAlign=middle;fontFamily=Helvetica;fontColor=default;" vertex="1" parent="kzQwb79V7lkBx5ds27BD-66">
          <mxGeometry width="44" height="19" as="geometry">
            <mxRectangle width="44" height="19" as="alternateBounds" />
          </mxGeometry>
        </mxCell>
        <mxCell id="kzQwb79V7lkBx5ds27BD-68" value="tag" style="shape=partialRectangle;html=1;whiteSpace=wrap;connectable=0;strokeColor=inherit;overflow=hidden;fillColor=none;top=0;left=0;bottom=0;right=0;pointerEvents=1;fontSize=12;align=center;verticalAlign=middle;fontFamily=Helvetica;fontColor=default;" vertex="1" parent="kzQwb79V7lkBx5ds27BD-66">
          <mxGeometry x="44" width="67" height="19" as="geometry">
            <mxRectangle width="67" height="19" as="alternateBounds" />
          </mxGeometry>
        </mxCell>
        <mxCell id="kzQwb79V7lkBx5ds27BD-69" value="VARCHAR (32)" style="shape=partialRectangle;html=1;whiteSpace=wrap;connectable=0;strokeColor=inherit;overflow=hidden;fillColor=none;top=0;left=0;bottom=0;right=0;pointerEvents=1;fontSize=12;align=center;verticalAlign=middle;fontFamily=Helvetica;fontColor=default;" vertex="1" parent="kzQwb79V7lkBx5ds27BD-66">
          <mxGeometry x="111" width="119" height="19" as="geometry">
            <mxRectangle width="119" height="19" as="alternateBounds" />
          </mxGeometry>
        </mxCell>
        <mxCell id="kzQwb79V7lkBx5ds27BD-71" value="" style="endArrow=doubleBlock;startArrow=doubleBlock;html=1;rounded=0;fontFamily=Helvetica;fontSize=12;fontColor=default;exitX=1;exitY=0.5;exitDx=0;exitDy=0;entryX=0.003;entryY=1.061;entryDx=0;entryDy=0;entryPerimeter=0;startFill=1;endFill=1;strokeColor=#CCCCCC;" edge="1" parent="1" source="kzQwb79V7lkBx5ds27BD-9" target="kzQwb79V7lkBx5ds27BD-62">
          <mxGeometry width="50" height="50" relative="1" as="geometry">
            <mxPoint x="350" y="180" as="sourcePoint" />
            <mxPoint x="510" y="180" as="targetPoint" />
            <Array as="points" />
          </mxGeometry>
        </mxCell>
        <mxCell id="kzQwb79V7lkBx5ds27BD-89" style="edgeStyle=orthogonalEdgeStyle;rounded=0;orthogonalLoop=1;jettySize=auto;html=1;entryX=0;entryY=0.5;entryDx=0;entryDy=0;fontFamily=Helvetica;fontSize=12;fontColor=default;startArrow=block;startFill=1;endArrow=doubleBlock;endFill=1;" edge="1" parent="1" source="kzQwb79V7lkBx5ds27BD-4" target="kzQwb79V7lkBx5ds27BD-77">
          <mxGeometry relative="1" as="geometry" />
        </mxCell>
        <mxCell id="kzQwb79V7lkBx5ds27BD-90" style="edgeStyle=orthogonalEdgeStyle;rounded=0;orthogonalLoop=1;jettySize=auto;html=1;entryX=0.5;entryY=1;entryDx=0;entryDy=0;fontFamily=Helvetica;fontSize=12;fontColor=default;endArrow=block;endFill=1;startArrow=doubleBlock;startFill=1;" edge="1" parent="1" source="kzQwb79V7lkBx5ds27BD-77" target="kzQwb79V7lkBx5ds27BD-57">
          <mxGeometry relative="1" as="geometry" />
        </mxCell>
        <mxCell id="kzQwb79V7lkBx5ds27BD-91" value="" style="shape=umlDestroy;whiteSpace=wrap;html=1;strokeWidth=3;targetShapes=umlLifeline;strokeColor=#FF0000;align=center;verticalAlign=middle;fontFamily=Helvetica;fontSize=12;fillColor=#f8cecc;" vertex="1" parent="1">
          <mxGeometry x="410" y="160" width="30" height="30" as="geometry" />
        </mxCell>
      </root>
    </mxGraphModel>
  </diagram>
</mxfile>
